name C:\Users\u0101727\Documents\MyRepositories\upper-imu-dc\Results\main_tracking\Case_48\ABD01_linearAccelerations_groundFrame.mot
datacolumns 4
datarows 82
range 4.56000000 5.37000000
endheader 
time	radius_imu_x	radius_imu_y	radius_imu_z	
          4.56000000	          0.20245202	          9.65295927	         -0.33467396	
          4.57000000	          0.21948013	          9.62982336	         -0.32880498	
          4.58000000	          0.23728361	          9.61062439	         -0.32217614	
          4.59000000	          0.25453013	          9.59572386	         -0.31515962	
          4.60000000	          0.26996642	          9.58490361	         -0.30810297	
          4.61000000	          0.28244786	          9.57744810	         -0.30129954	
          4.62000000	          0.29102288	          9.57236071	         -0.29496653	
          4.63000000	          0.29510512	          9.56864917	         -0.28922425	
          4.64000000	          0.29462176	          9.56552641	         -0.28408203	
          4.65000000	          0.29000090	          9.56245138	         -0.27944640	
          4.66000000	          0.28204008	          9.55912235	         -0.27515796	
          4.67000000	          0.27180439	          9.55551542	         -0.27104095	
          4.68000000	          0.26057384	          9.55190053	         -0.26694024	
          4.69000000	          0.24976068	          9.54875863	         -0.26273173	
          4.70000000	          0.24078147	          9.54662288	         -0.25830850	
          4.71000000	          0.23491624	          9.54592227	         -0.25356099	
          4.72000000	          0.23318576	          9.54688415	         -0.24837076	
          4.73000000	          0.23627008	          9.54950572	         -0.24262308	
          4.74000000	          0.24446106	          9.55357359	         -0.23623250	
          4.75000000	          0.25763617	          9.55868346	         -0.22916600	
          4.76000000	          0.27525663	          9.56423287	         -0.22144774	
          4.77000000	          0.29640221	          9.56945723	         -0.21314989	
          4.78000000	          0.31984156	          9.57361349	         -0.20439601	
          4.79000000	          0.34409914	          9.57624080	         -0.19538559	
          4.80000000	          0.36752633	          9.57730697	         -0.18640947	
          4.81000000	          0.38845122	          9.57720298	         -0.17783142	
          4.82000000	          0.40539681	          9.57666530	         -0.17004495	
          4.83000000	          0.41727562	          9.57665465	         -0.16342141	
          4.84000000	          0.42350773	          9.57819878	         -0.15825952	
          4.85000000	          0.42403789	          9.58223025	         -0.15474933	
          4.86000000	          0.41923073	          9.58945963	         -0.15296670	
          4.87000000	          0.40968620	          9.60030457	         -0.15289909	
          4.88000000	          0.39607397	          9.61483548	         -0.15447426	
          4.89000000	          0.37903040	          9.63267075	         -0.15755672	
          4.90000000	          0.35910393	          9.65283537	         -0.16190887	
          4.91000000	          0.33676191	          9.67369504	         -0.16714375	
          4.92000000	          0.31246242	          9.69308439	         -0.17270724	
          4.93000000	          0.28674415	          9.70865172	         -0.17791552	
          4.94000000	          0.26028304	          9.71830353	         -0.18203961	
          4.95000000	          0.23389879	          9.72057133	         -0.18440206	
          4.96000000	          0.20851888	          9.71479528	         -0.18445423	
          4.97000000	          0.18509431	          9.70114094	         -0.18183157	
          4.98000000	          0.16445784	          9.68051319	         -0.17639662	
          4.99000000	          0.14717054	          9.65440615	         -0.16826333	
          5.00000000	          0.13342850	          9.62470174	         -0.15778464	
          5.01000000	          0.12306670	          9.59343865	         -0.14549865	
          5.02000000	          0.11563425	          9.56259556	         -0.13205229	
          5.03000000	          0.11047284	          9.53391809	         -0.11812667	
          5.04000000	          0.10678365	          9.50878527	         -0.10436803	
          5.05000000	          0.10373027	          9.48810854	         -0.09131628	
          5.06000000	          0.10057679	          9.47228209	         -0.07934268	
          5.07000000	          0.09680416	          9.46120646	         -0.06862230	
          5.08000000	          0.09216949	          9.45438338	         -0.05915074	
          5.09000000	          0.08670606	          9.45105481	         -0.05079315	
          5.10000000	          0.08067349	          9.45035271	         -0.04334549	
          5.11000000	          0.07447331	          9.45143121	         -0.03659242	
          5.12000000	          0.06856123	          9.45355490	         -0.03034642	
          5.13000000	          0.06340556	          9.45612694	         -0.02445470	
          5.14000000	          0.05950078	          9.45866779	         -0.01877837	
          5.15000000	          0.05737652	          9.46077232	         -0.01316752	
          5.16000000	          0.05753551	          9.46208202	         -0.00745889	
          5.17000000	          0.06029903	          9.46230388	         -0.00151353	
          5.18000000	          0.06560809	          9.46126748	          0.00471833	
          5.19000000	          0.07288743	          9.45897066	          0.01114829	
          5.20000000	          0.08106103	          9.45560162	          0.01753741	
          5.21000000	          0.08872744	          9.45158397	          0.02349665	
          5.22000000	          0.09443479	          9.44764148	          0.02849001	
          5.23000000	          0.09696105	          9.44480138	          0.03186779	
          5.24000000	          0.09551511	          9.44428081	          0.03295041	
          5.25000000	          0.08982056	          9.44729474	          0.03114092	
          5.26000000	          0.08009180	          9.45487928	          0.02601308	
          5.27000000	          0.06694171	          9.46779694	          0.01733565	
          5.28000000	          0.05126394	          9.48650788	          0.00504663	
          5.29000000	          0.03411771	          9.51113457	         -0.01076607	
          5.30000000	          0.01662579	          9.54138890	         -0.02984152	
          5.31000000	         -0.00011429	          9.57650936	         -0.05170005	
          5.32000000	         -0.01511176	          9.61526500	         -0.07561791	
          5.33000000	         -0.02755310	          9.65603144	         -0.10064386	
          5.34000000	         -0.03683620	          9.69690950	         -0.12564965	
          5.35000000	         -0.04255459	          9.73586467	         -0.14940202	
          5.36000000	         -0.04446675	          9.77087769	         -0.17065293	
          5.37000000	         -0.04250272	          9.80008886	         -0.18824031	
